<svg xmlns="http://www.w3.org/2000/svg" viewBox="0 0 160 70"><path d="M65.2 49.2v6.3c0 5.7-4.6 10.3-10.2 10.3H4.1V4.2h61.1v8.3h4.1V4.2 0H0v4.2 61.6V70h4.1H55c7.9 0 14.4-6.5 14.4-14.5v-6.3h-4.2 0zM38.5 24.7v17c-.3.1-.5.1-.8.1-.4 0-.8.1-1.1.1-1 0-1.8-.3-2.3-1s-.8-2-.8-3.8V24.7h-4.1v12.5c0 1.6.2 3 .5 4 .3 1.1.8 2 1.5 2.6.6.7 1.4 1.1 2.4 1.4.9.2 1.9.4 2.9.4.4 0 .9 0 1.4-.1s1-.1 1.5-.2l1.5-.3c.5-.1.9-.2 1.2-.4l.3-.1V24.7h-4.1zm21.7 4.2c-.3-1.1-.8-2-1.4-2.7s-1.4-1.2-2.2-1.5c-1.6-.5-3.5-.5-5.8-.1-1.1.2-2.1.4-3 .7l-.3.1v19.9h4.1V28.4c.7-.2 1.3-.3 1.9-.3 1.2 0 1.9.4 2.3 1.1.4.8.7 2.2.7 4v12h4.1V33c.1-1.6-.1-3-.4-4.1m5-4.2h4.1v20.6h-4.1V24.7zM83.9 41l-.5.3c-.4.2-.7.4-1.1.5s-.8.2-1.3.2c-.7 0-1.2-.2-1.7-.5-.4-.3-.8-.8-1.1-1.3-.3-.6-.5-1.3-.6-2.2s-.2-1.9-.2-2.9c0-2.5.3-4.3.9-5.4.5-1.1 1.4-1.6 2.5-1.6.8 0 1.6.2 2.3.7l.5.3 1.1-3.6-.3-.2c-.5-.3-1.1-.5-1.7-.7s-1.3-.3-2.1-.3c-2.5 0-4.4 1-5.7 3-1.2 1.9-1.8 4.5-1.8 7.9 0 1.5.1 2.9.4 4.2.2 1.3.7 2.4 1.2 3.4.6 1 1.4 1.8 2.3 2.3 1 .6 2.2.9 3.6.9.8 0 1.6-.1 2.3-.4.7-.2 1.3-.5 1.7-.8l.3-.2-1-3.6zm13-15c-1.2-1.2-2.7-1.8-4.6-1.8-.9 0-1.7.1-2.4.3s-1.5.4-2.1.7l-.4.2.9 3.7.5-.2c.5-.2 1-.4 1.5-.5s1-.2 1.5-.2c.9 0 1.6.2 2 .7.5.5.7 1.4.7 2.7v1.2c-.8-.1-1.5-.2-2.2-.2-.9 0-1.8.1-2.6.4s-1.5.7-2.1 1.3-1.1 1.3-1.4 2.1-.5 1.8-.5 2.9c0 1.2.2 2.2.6 3s.9 1.5 1.5 2.1c.6.5 1.4.9 2.2 1.2.8.2 1.7.4 2.6.4s1.8-.1 2.8-.2l2.8-.6.4-.1V31.4c.1-2.4-.5-4.2-1.7-5.4m-4 16c-1 0-1.7-.2-2.2-.7-.5-.4-.7-1.2-.7-2.2 0-.6.1-1.1.2-1.5s.3-.6.6-.9c.3-.2.6-.4.9-.5.4-.1.8-.2 1.2-.2.6 0 1.1.1 1.7.2v5.4a3.81 3.81 0 0 1-1.7.4M116 28.9c-.3-1.1-.8-2-1.4-2.7s-1.4-1.2-2.2-1.5c-1.6-.5-3.5-.5-5.8-.1-1.1.2-2.1.4-3 .7l-.3.1v19.9h4.1V28.4c.7-.2 1.3-.3 1.9-.3 1.2 0 1.9.4 2.3 1.1.4.8.7 2.2.7 4v12h4.1V33c.1-1.6-.1-3-.4-4.1M130.7 41l-.5.3c-.4.2-.7.4-1.1.5s-.8.2-1.3.2c-.7 0-1.2-.2-1.7-.5-.4-.3-.8-.8-1.1-1.3-.3-.6-.5-1.3-.6-2.2s-.2-1.9-.2-2.9c0-2.5.3-4.3.9-5.4.5-1.1 1.4-1.6 2.5-1.6.8 0 1.6.2 2.3.7l.5.3 1.1-3.6-.3-.2c-.5-.3-1.1-.5-1.7-.7s-1.3-.3-2.1-.3c-2.5 0-4.4 1-5.7 3-1.2 1.9-1.8 4.5-1.8 7.9 0 1.5.1 2.9.4 4.2.2 1.3.7 2.4 1.2 3.4.6 1 1.4 1.8 2.3 2.3 1 .6 2.2.9 3.6.9.8 0 1.6-.1 2.3-.4.7-.2 1.3-.5 1.7-.8l.3-.2-1-3.6zm14.2-14c-1-1.8-2.7-2.8-5.1-2.8-2.1 0-3.8.9-5.1 2.7-1.2 1.7-1.9 4.5-1.9 8.2 0 1.5.1 2.9.4 4.2s.7 2.4 1.3 3.4 1.4 1.7 2.4 2.3c1 .5 2.2.8 3.6.8 1.1 0 2-.1 2.8-.4s1.4-.5 1.7-.8l.3-.2-.8-3.5-.6.3c-.2.1-.7.3-1.2.5-.6.2-1.2.3-1.8.3-.8 0-1.4-.1-1.9-.4s-.9-.7-1.2-1.2-.5-1.2-.7-1.9c-.1-.6-.2-1.3-.2-2h9.1v-.4-.9-.8c.3-3.2-.2-5.7-1.1-7.4m-5.1.9c.9 0 1.4.4 1.7 1.3s.5 2.1.5 3.7h-4.9c.1-1.5.4-2.7.8-3.6s1-1.4 1.9-1.4m19.8-3c-.6-.2-1.1-.4-1.8-.4-.6-.1-1.2-.1-1.8-.1-1.1 0-2.2.1-3.2.4-1 .2-1.8.6-2.5.9l-.3.1v19.5h4.1V28.4c.6-.2 1.3-.3 2.1-.3.9 0 1.7.2 2.5.5l.6.2.8-3.8-.5-.1zm-94.4-8.5h4.1v4.5h-4.1v-4.5z" fill="#ea560d"/></svg>